<?xml version="1.0" encoding="UTF-8" standalone="no"?>
<svg
   enable-background="new 0 0 24 24"
   height="24px"
   viewBox="0 0 24 24"
   width="24px"
   fill="#FFFFFF"
   version="1.1"
   id="svg201"
   sodipodi:docname="ic_disk_image.svg"
   inkscape:version="1.2.2 (b0a8486541, 2022-12-01)"
   xmlns:inkscape="http://www.inkscape.org/namespaces/inkscape"
   xmlns:sodipodi="http://sodipodi.sourceforge.net/DTD/sodipodi-0.dtd"
   xmlns="http://www.w3.org/2000/svg"
   xmlns:svg="http://www.w3.org/2000/svg">
  <defs
     id="defs205" />
  <sodipodi:namedview
     id="namedview203"
     pagecolor="#505050"
     bordercolor="#ffffff"
     borderopacity="1"
     inkscape:showpageshadow="0"
     inkscape:pageopacity="0"
     inkscape:pagecheckerboard="1"
     inkscape:deskcolor="#505050"
     showgrid="false"
     inkscape:zoom="9.2667537"
     inkscape:cx="7.8776238"
     inkscape:cy="17.805588"
     inkscape:window-width="2184"
     inkscape:window-height="1325"
     inkscape:window-x="1461"
     inkscape:window-y="444"
     inkscape:window-maximized="0"
     inkscape:current-layer="g197" />
  <g
     id="g189">
    <path
       d="M0,0h24v24H0V0z"
       fill="none"
       id="path187" />
  </g>
  <g
     id="g199">
    <g
       id="g197">
      <path
         d="M 14,4 H 6 V 20 H 18 V 8 h -4 z"
         opacity="0.3"
         id="path191"
         sodipodi:nodetypes="ccccccc" />
      <path
         d="M14,2H6C4.9,2,4,2.9,4,4v16c0,1.1,0.9,2,2,2h12c1.1,0,2-0.9,2-2V8L14,2z M18,20H6V4h8v4h4V20z"
         id="path195" />
      <path
         d="m 12,9.4682334 c -2.4899999,0 -4.5,2.0099996 -4.5,4.4999996 0,2.49 2.0100001,4.5 4.5,4.5 2.49,0 4.5,-2.01 4.5,-4.5 0,-2.49 -2.01,-4.4999996 -4.5,-4.4999996 z m 0,5.4999996 c -0.55,0 -1,-0.45 -1,-1 0,-0.55 0.45,-1 1,-1 0.55,0 1,0.45 1,1 0,0.55 -0.45,1 -1,1 z"
         id="path536" />
    </g>
  </g>
</svg>
