<?xml version="1.0" encoding="UTF-8" standalone="no"?>
<svg
   enable-background="new 0 0 24 24"
   height="24px"
   viewBox="0 0 24 24"
   width="24px"
   fill="#FFFFFF"
   version="1.1"
   id="svg195"
   sodipodi:docname="ic_usb_stick.svg"
   inkscape:version="1.2.2 (b0a8486541, 2022-12-01)"
   xmlns:inkscape="http://www.inkscape.org/namespaces/inkscape"
   xmlns:sodipodi="http://sodipodi.sourceforge.net/DTD/sodipodi-0.dtd"
   xmlns="http://www.w3.org/2000/svg"
   xmlns:svg="http://www.w3.org/2000/svg">
  <defs
     id="defs199" />
  <sodipodi:namedview
     id="namedview197"
     pagecolor="#505050"
     bordercolor="#ffffff"
     borderopacity="1"
     inkscape:showpageshadow="0"
     inkscape:pageopacity="0"
     inkscape:pagecheckerboard="1"
     inkscape:deskcolor="#505050"
     showgrid="false"
     inkscape:zoom="8.9501097"
     inkscape:cx="26.815314"
     inkscape:cy="21.061194"
     inkscape:window-width="2128"
     inkscape:window-height="1386"
     inkscape:window-x="2034"
     inkscape:window-y="656"
     inkscape:window-maximized="0"
     inkscape:current-layer="g12818" />
  <g
     id="g12818"
     transform="translate(-16.571798,-23.314565)">
    <path
       id="rect11704"
       style="fill:#ffffff;fill-opacity:1;fill-rule:evenodd;stroke:none;stroke-width:2;stroke-linejoin:round;stroke-dasharray:none;stroke-opacity:1;paint-order:markers stroke fill"
       d="m 24.727232,24.314566 c -0.721356,7.1e-5 -1.306113,0.584828 -1.306184,1.306183 v 15.870637 c 7.1e-5,0.721356 0.584828,1.306112 1.306184,1.306182 h 1.168421 v 2.846046 c 0,0.371032 0.299917,0.670951 0.67095,0.670951 h 4.010391 c 0.371032,0 0.670949,-0.299919 0.670949,-0.670951 v -2.846046 h 1.168421 c 0.721357,-7e-5 1.306112,-0.584826 1.306184,-1.306182 V 25.620749 c -7.2e-5,-0.721355 -0.584827,-1.306112 -1.306184,-1.306183 z m 1.306183,2.612366 h 5.076766 v 13.258271 h -5.076766 z"
       sodipodi:nodetypes="cccccssssccccccccccc" />
    <path
       id="rect10235"
       style="opacity:0.3;fill:#ffffff;fill-opacity:1;stroke:none;stroke-width:2;stroke-linejoin:round;stroke-dasharray:none;stroke-opacity:1;paint-order:markers stroke fill"
       d="m 26.03355,26.927492 v 13.258272 h 5.076767 V 26.927492 Z" />
  </g>
</svg>
