<?xml version="1.0" encoding="UTF-8" standalone="no"?>
<svg
   enable-background="new 0 0 24 24"
   height="128"
   viewBox="0 0 128 128"
   width="128"
   fill="#ffffff"
   version="1.1"
   id="svg195"
   sodipodi:docname="ic_write_to_usb_failed_large.svg"
   inkscape:version="1.2.2 (b0a8486541, 2022-12-01)"
   xmlns:inkscape="http://www.inkscape.org/namespaces/inkscape"
   xmlns:sodipodi="http://sodipodi.sourceforge.net/DTD/sodipodi-0.dtd"
   xmlns="http://www.w3.org/2000/svg"
   xmlns:svg="http://www.w3.org/2000/svg">
  <defs
     id="defs199" />
  <sodipodi:namedview
     id="namedview197"
     pagecolor="#505050"
     bordercolor="#ffffff"
     borderopacity="1"
     inkscape:showpageshadow="0"
     inkscape:pageopacity="0"
     inkscape:pagecheckerboard="1"
     inkscape:deskcolor="#505050"
     showgrid="false"
     inkscape:zoom="4.4142269"
     inkscape:cx="123.12462"
     inkscape:cy="87.331261"
     inkscape:window-width="2405"
     inkscape:window-height="1106"
     inkscape:window-x="2280"
     inkscape:window-y="758"
     inkscape:window-maximized="0"
     inkscape:current-layer="g12818" />
  <g
     id="g12818"
     transform="translate(-16.716797,15.603516)">
    <g
       id="g765"
       transform="translate(-14.263025)">
      <path
         id="rect10235"
         style="opacity:0.3;fill:#ffffff;fill-opacity:1;stroke:none;stroke-width:2.00001;stroke-linejoin:round;stroke-dasharray:none;stroke-opacity:1;paint-order:markers stroke fill"
         d="M 69.145262,3.3361199 V 77.301633 H 92.288331 V 3.3361199 Z" />
      <path
         id="path23"
         style="fill:#ffffff;stroke-width:0.999998"
         d="m 69.394604,85.741272 v 16.155218 h 11.32219 11.323077 V 85.741272 H 80.716796 Z m 13.923017,6.583531 h 5.669994 v 4.061064 h -5.669994 z m -10.853848,0.0019 h 5.670007 v 4.061049 h -5.670007 z" />
      <path
         style="color:#000000;fill:#ffffff;fill-rule:evenodd;stroke-width:1;stroke-linejoin:round;-inkscape-stroke:none;paint-order:markers stroke fill"
         d="m 64.925443,-5.1035195 a 4.220241,4.220241 0 0 0 -4.219819,4.219819 V 81.521453 a 4.220241,4.220241 0 0 0 4.219819,4.219819 H 96.50815 a 4.220241,4.220241 0 0 0 4.21982,-4.219819 V -0.8837005 a 4.220241,4.220241 0 0 0 -4.21982,-4.219819 z m 4.219819,8.4396377 H 92.288331 V 77.301634 H 69.145262 Z"
         id="rect766" />
      <path
         id="path2524"
         style="opacity:0.3;fill:#ffffff;fill-opacity:1;stroke:none;stroke-width:2.00001;stroke-linejoin:round;stroke-dasharray:none;stroke-opacity:1;paint-order:markers stroke fill"
         d="m 72.463773,92.32666 v 4.061049 H 78.13378 V 92.32666 Z" />
      <path
         id="path2526"
         style="opacity:0.3;fill:#ffffff;fill-opacity:1;stroke:none;stroke-width:2.00001;stroke-linejoin:round;stroke-dasharray:none;stroke-opacity:1;paint-order:markers stroke fill"
         d="m 83.317608,92.324809 v 4.061049 h 5.670007 v -4.061049 z" />
    </g>
    <path
       d="m 102.0219,61.365578 h 12.96909 V 9.4892019 H 102.0219 Z m 0,25.938188 h 12.96909 V 74.334673 H 102.0219 Z"
       id="path2553"
       style="stroke-width:1" />
  </g>
</svg>
