<?xml version="1.0" encoding="UTF-8" standalone="no"?>
<svg
   enable-background="new 0 0 24 24"
   height="24px"
   viewBox="0 0 24 24"
   width="24px"
   fill="#FFFFFF"
   version="1.1"
   id="svg195"
   sodipodi:docname="ic_written_to_usb.svg"
   inkscape:version="1.2.2 (b0a8486541, 2022-12-01)"
   xmlns:inkscape="http://www.inkscape.org/namespaces/inkscape"
   xmlns:sodipodi="http://sodipodi.sourceforge.net/DTD/sodipodi-0.dtd"
   xmlns="http://www.w3.org/2000/svg"
   xmlns:svg="http://www.w3.org/2000/svg">
  <defs
     id="defs199" />
  <sodipodi:namedview
     id="namedview197"
     pagecolor="#505050"
     bordercolor="#ffffff"
     borderopacity="1"
     inkscape:showpageshadow="0"
     inkscape:pageopacity="0"
     inkscape:pagecheckerboard="1"
     inkscape:deskcolor="#505050"
     showgrid="false"
     inkscape:zoom="41.218844"
     inkscape:cx="11.839245"
     inkscape:cy="17.079567"
     inkscape:window-width="2716"
     inkscape:window-height="1415"
     inkscape:window-x="1683"
     inkscape:window-y="571"
     inkscape:window-maximized="0"
     inkscape:current-layer="g12818" />
  <g
     id="g12818"
     transform="translate(-16.571798,-23.314565)">
    <g
       id="g2355"
       transform="translate(1.9765625)">
      <path
         id="rect11704"
         style="fill:#ffffff;fill-opacity:1;fill-rule:evenodd;stroke:none;stroke-width:2;stroke-linejoin:round;stroke-dasharray:none;stroke-opacity:1;paint-order:markers stroke fill"
         d="m 23.651876,26.89269 c -0.552261,5.5e-5 -0.999945,0.447739 -1,1 v 12.150391 c 5.5e-5,0.552261 0.447739,0.999945 1,1 h 0.894531 v 2.179687 c 0,0.284058 0.229615,0.513672 0.513672,0.513672 h 3.070313 c 0.284057,0 0.513672,-0.229614 0.513672,-0.513672 v -2.179687 h 0.894531 c 0.328128,-3.3e-5 0.61649,-0.160177 0.798828,-0.404297 l -1.798828,-1.798828 v 0.203125 H 24.651876 V 28.89269 h 3.886719 v 2.460938 l 2,2 V 27.89269 c -5.5e-5,-0.552261 -0.447739,-0.999945 -1,-1 z" />
      <path
         id="rect10235"
         style="opacity:0.3;fill:#ffffff;fill-opacity:1;stroke:none;stroke-width:2;stroke-linejoin:round;stroke-dasharray:none;stroke-opacity:1;paint-order:markers stroke fill"
         d="m 24.651876,28.89269 v 10.150391 h 3.886719 v -0.203125 l -3.75,-3.75 3.742187,-3.744141 0.0078,0.0078 V 28.89269 Z" />
      <path
         style="color:#000000;fill:#ffffff;stroke-width:3.3;-inkscape-stroke:none"
         d="m 30.661654,38.629711 -3.54,-3.54 1.41,-1.409999 2.12,2.12 4.24,-4.240001 1.41,1.409999 z"
         id="path2332" />
    </g>
  </g>
</svg>
