<?xml version="1.0" encoding="UTF-8" standalone="no"?>
<!-- Created with Inkscape (http://www.inkscape.org/) -->

<svg
   width="1024"
   height="500"
   viewBox="0 0 270.93333 132.29167"
   version="1.1"
   id="svg1"
   inkscape:version="1.3.2 (091e20ef0f, 2023-11-25, custom)"
   sodipodi:docname="feature-graphic.svg"
   xmlns:inkscape="http://www.inkscape.org/namespaces/inkscape"
   xmlns:sodipodi="http://sodipodi.sourceforge.net/DTD/sodipodi-0.dtd"
   xmlns="http://www.w3.org/2000/svg"
   xmlns:svg="http://www.w3.org/2000/svg"
   xmlns:i="http://ns.adobe.com/AdobeIllustrator/10.0/">
  <sodipodi:namedview
     id="namedview1"
     pagecolor="#505050"
     bordercolor="#ffffff"
     borderopacity="1"
     inkscape:showpageshadow="0"
     inkscape:pageopacity="0"
     inkscape:pagecheckerboard="1"
     inkscape:deskcolor="#d1d1d1"
     inkscape:document-units="mm"
     showguides="false"
     inkscape:zoom="0.94807005"
     inkscape:cx="462.51856"
     inkscape:cy="215.70136"
     inkscape:window-width="2837"
     inkscape:window-height="1258"
     inkscape:window-x="1813"
     inkscape:window-y="385"
     inkscape:window-maximized="0"
     inkscape:current-layer="layer1" />
  <defs
     id="defs1" />
  <g
     inkscape:label="Layer 1"
     inkscape:groupmode="layer"
     id="layer1">
    <rect
       style="opacity:1;fill:#20261f;fill-opacity:1;fill-rule:evenodd;stroke:none;stroke-width:4.06501;stroke-linecap:round;stroke-linejoin:round;paint-order:markers stroke fill"
       id="rect1"
       width="270.93332"
       height="132.29167"
       x="1.7763568e-15"
       y="0"
       ry="0"
       sodipodi:insensitive="true" />
    <g
       id="g1"
       transform="matrix(2.0965118,0,0,2.0965118,-114.51235,-38.958924)"
       style="stroke-width:0.476983">
      <path
         id="path23"
         style="fill:#ffffff;stroke-width:0.126202"
         d="m 156.22939,50.907859 v 11.52304 h 8.07578 8.07642 v -11.52304 h -8.07642 z m 9.93088,4.695842 h 4.04424 v 2.896637 h -4.04424 z m -7.74173,0.0013 h 4.04425 v 2.896635 h -4.04425 z" />
      <path
         d="m 169.72708,41.590221 1.84348,-3.193443 c 0.10403,-0.179023 0.0411,-0.406436 -0.13548,-0.510465 -0.17661,-0.104029 -0.40644,-0.04354 -0.50804,0.135482 l -1.86769,3.234565 c -1.42495,-0.650785 -3.02892,-1.01368 -4.75387,-1.01368 -1.72494,0 -3.32892,0.36289 -4.75387,1.01368 l -1.86769,-3.234565 c -0.10402,-0.179029 -0.33144,-0.239511 -0.51047,-0.135482 -0.17902,0.104029 -0.2395,0.331442 -0.13547,0.510465 l 1.84348,3.193443 c -3.17893,1.722523 -5.33208,4.940152 -5.68771,8.706935 h 22.22348 c -0.35563,-3.766803 -2.50879,-6.984443 -5.69013,-8.706935 z m -10.52385,5.586094 c -0.51531,0 -0.93142,-0.418529 -0.93142,-0.931418 0,-0.515303 0.41853,-0.931419 0.93142,-0.931419 0.5153,0 0.93142,0.418534 0.93142,0.931419 0.003,0.512889 -0.41612,0.931418 -0.93142,0.931418 z m 10.20211,0 c -0.51531,0 -0.93143,-0.418529 -0.93143,-0.931418 0,-0.515303 0.41854,-0.931419 0.93143,-0.931419 0.5153,0 0.93141,0.418534 0.93141,0.931419 0.003,0.512889 -0.41611,0.931418 -0.93141,0.931418 z"
         fill="#32de84"
         stroke-width="0.137372"
         id="path330"
         style="fill:#87d98a;fill-opacity:1" />
    </g>
    <g
       id="g10"
       transform="translate(-3.052468,-2.1736072)">
      <g
         id="g8"
         transform="matrix(0.13799493,0,0,0.14102461,88.884067,72.880936)"
         style="stroke-width:7.16838">
        <path
           d="m 104.96333,-65.349989 c -0.9576,0.02972 -1.98891,0.383468 -3.15846,1.30638 -2.864634,-1.104979 -5.642793,-1.48886 -8.12767,0.760677 -3.834834,-0.497617 -5.082722,0.529364 -6.027539,1.72806 -0.842049,-0.01743 -6.30207,-0.865735 -8.805664,2.869076 -6.292227,-0.744385 -8.280605,3.700958 -6.027539,7.846549 -1.285057,1.98939 -2.616597,3.954787 0.388607,7.747331 -1.063097,2.112304 -0.404133,4.403733 2.10013,7.176823 -0.660891,2.969312 0.638196,5.064352 2.968294,6.697265 -0.435792,4.063355 3.726261,6.426049 4.969206,7.267773 0.477223,2.367672 1.471853,4.601819 6.225977,5.83737 0.784021,3.52851 3.641211,4.137835 6.407877,4.878255 -9.14451,5.3153577 -16.986427,12.3091207 -16.933333,29.467969 l -1.339453,2.389518 c -10.485667,6.377064 -19.919235,26.872739 -5.167643,43.532226 0.963578,5.214509 2.579578,8.959839 4.018359,13.105143 2.152077,16.703299 16.197164,24.524654 19.901627,25.449614 5.428334,4.13494 11.209914,8.05834 19.033464,10.80657 7.3753,7.60663 15.36538,10.50565 23.39909,10.50065 0.11778,-7e-5 0.23773,0.001 0.35553,0 8.03371,0.005 16.02379,-2.89402 23.39909,-10.50065 7.82355,-2.74823 13.60513,-6.67163 19.03346,-10.80657 3.70447,-0.92496 17.74955,-8.746315 19.90163,-25.449614 1.43878,-4.145304 3.05478,-7.890634 4.01836,-13.105143 14.75159,-16.659487 5.31802,-37.155162 -5.16764,-43.532226 l -1.33946,-2.389518 c 0.0531,-17.1588483 -7.78882,-24.1526113 -16.93333,-29.467969 2.76667,-0.74042 5.62386,-1.349745 6.40788,-4.878255 4.75412,-1.235551 5.74875,-3.469698 6.22597,-5.83737 1.24295,-0.841724 5.405,-3.204418 4.96921,-7.267773 2.3301,-1.632913 3.62919,-3.727953 2.96829,-6.697265 2.50427,-2.77309 3.16323,-5.064519 2.10013,-7.176823 3.00521,-3.792544 1.67367,-5.757941 0.38861,-7.747331 2.25307,-4.145591 0.26469,-8.590934 -6.02754,-7.846549 -2.50359,-3.734811 -7.96361,-2.886503 -8.80566,-2.869076 -0.94482,-1.198696 -2.19271,-2.225677 -6.02754,-1.72806 -2.48488,-2.249537 -5.26304,-1.865656 -8.12767,-0.760677 -3.40233,-2.684836 -5.65474,-0.532684 -8.22689,0.28112 -4.12058,-1.346141 -5.06228,0.497657 -7.08587,1.248503 -4.49137,-0.949345 -5.85671,1.117476 -8.01191,3.299023 l -2.50528,-0.04961 c -6.77612,3.993386 -10.14248,12.124663 -11.33574,16.304947 -1.19382,-4.18094 -4.55254,-12.312264 -11.32747,-16.304947 l -2.50528,0.04961 c -2.1552,-2.181547 -3.52054,-4.248369 -8.01191,-3.299023 -2.02359,-0.750846 -2.96529,-2.594644 -7.08587,-1.248503 -1.68797,-0.534059 -3.24027,-1.644234 -5.06843,-1.5875 z"
           style="fill:#000000;stroke-width:1.89663"
           id="path1-92" />
        <path
           d="m 91.474039,-47.781832 c 17.977821,9.268713 28.428651,16.766372 34.154311,23.152223 -2.9322,11.752154 -18.22883,12.288478 -23.82191,11.958791 1.14522,-0.533067 2.10076,-1.171517 2.43959,-2.152581 -1.40348,-0.997429 -6.37987,-0.10509 -9.854045,-2.056913 1.334577,-0.276487 1.958838,-0.545841 2.583098,-1.530726 -3.282344,-1.046877 -6.817947,-1.949032 -8.897341,-3.683307 1.122165,0.01386 2.169889,0.251037 3.635472,-0.765363 -2.939969,-1.584375 -6.077243,-2.839908 -8.514659,-5.261869 1.520087,-0.03721 3.15898,-0.01503 3.635473,-0.574022 -2.690929,-1.667054 -4.961266,-3.52104 -6.84043,-5.548881 2.127245,0.256784 3.025586,0.03566 3.539803,-0.334846 -2.034062,-2.083379 -4.608396,-3.842594 -5.835891,-6.409912 1.579458,0.544376 3.024518,0.752755 4.06599,-0.04783 -0.691189,-1.55931 -3.652682,-2.479045 -5.357539,-6.122902 1.662736,0.161231 3.426249,0.362772 3.778978,0 -0.773194,-3.145516 -2.097473,-4.913319 -3.396297,-6.744759 3.558657,-0.05285 8.95026,0.01385 8.706001,-0.287011 l -2.200418,-2.248253 c 3.475995,-0.935895 7.032797,0.150326 9.614869,0.956703 1.159367,-0.914845 -0.02053,-2.071682 -1.435055,-3.252791 2.954062,0.3944 5.623406,1.073517 8.036308,2.009077 1.289153,-1.163989 -0.837112,-2.327979 -1.865572,-3.491968 4.563895,0.865867 6.497415,2.082451 8.418995,3.300627 1.39418,-1.336357 0.0798,-2.472081 -0.86104,-3.635473 3.44108,1.274511 5.21356,2.919823 7.07961,4.544341 0.63267,-0.853824 1.60733,-1.479658 0.43051,-3.539802 2.44321,1.408304 4.28341,3.067859 5.64456,4.927022 1.51166,-0.962538 0.9006,-2.278862 0.90886,-3.491967 2.53912,2.065474 4.15049,4.263482 6.12291,6.409913 0.39732,-0.289306 0.74522,-1.270453 1.05237,-2.822276 6.05774,5.876876 14.61715,20.679368 2.20042,26.54852 -10.56184,-8.71727 -23.18177,-15.051493 -37.167931,-19.80376 z"
           style="fill:#75a928;stroke-width:1.89663"
           id="path2-28" />
        <path
           d="m 186.86507,-47.781832 c -17.97782,9.268713 -28.42866,16.766372 -34.15432,23.152223 2.93221,11.752154 18.22884,12.288478 23.82192,11.958791 -1.14523,-0.533067 -2.10076,-1.171517 -2.43959,-2.152581 1.40348,-0.997429 6.37987,-0.10509 9.85404,-2.056913 -1.33458,-0.276487 -1.95884,-0.545841 -2.5831,-1.530726 3.28235,-1.046877 6.81795,-1.949032 8.89735,-3.683307 -1.12217,0.01386 -2.16989,0.251037 -3.63548,-0.765363 2.93997,-1.584375 6.07725,-2.839908 8.51466,-5.261869 -1.52008,-0.03721 -3.15898,-0.01503 -3.63547,-0.574022 2.69093,-1.667054 4.96126,-3.52104 6.84043,-5.548881 -2.12725,0.256784 -3.02559,0.03566 -3.5398,-0.334846 2.03406,-2.083379 4.60839,-3.842594 5.83589,-6.409912 -1.57946,0.544376 -3.02452,0.752755 -4.06599,-0.04783 0.69119,-1.55931 3.65268,-2.479045 5.35754,-6.122902 -1.66274,0.161231 -3.42625,0.362772 -3.77898,0 0.77319,-3.145516 2.09747,-4.913319 3.39629,-6.744759 -3.55865,-0.05285 -8.95025,0.01385 -8.706,-0.287011 l 2.20042,-2.248253 c -3.47599,-0.935895 -7.0328,0.150326 -9.61487,0.956703 -1.15936,-0.914845 0.0205,-2.071682 1.43506,-3.252791 -2.95406,0.3944 -5.62341,1.073517 -8.03631,2.009077 -1.28915,-1.163989 0.83711,-2.327979 1.86557,-3.491968 -4.56389,0.865867 -6.49741,2.082451 -8.41899,3.300627 -1.39418,-1.336357 -0.0798,-2.472081 0.86103,-3.635473 -3.44108,1.274511 -5.21355,2.919823 -7.0796,4.544341 -0.63267,-0.853824 -1.60733,-1.479658 -0.43052,-3.539802 -2.4432,1.408304 -4.28341,3.067859 -5.64455,4.927022 -1.51166,-0.962538 -0.90061,-2.278862 -0.90887,-3.491967 -2.53911,2.065474 -4.15048,4.263482 -6.1229,6.409913 -0.39732,-0.289306 -0.74523,-1.270453 -1.05237,-2.822276 -6.05774,5.876876 -14.61715,20.679368 -2.20042,26.54852 10.56184,-8.71727 23.18177,-15.051493 37.16793,-19.80376 z"
           style="fill:#75a928;stroke-width:1.89663"
           id="path3-9" />
        <path
           d="m 160.94158,71.890655 a 21.534467,19.857446 0 1 1 -43.06893,0 21.534467,19.857446 0 1 1 43.06893,0 z"
           style="fill:#bc1142;stroke-width:2.14239"
           id="path4-7" />
        <path
           d="M 126.94466,15.164354 A 19.314277,22.788477 34.034225 1 1 101.81775,53.188222 19.314277,22.788477 34.034225 1 1 126.94466,15.164354 Z"
           style="fill:#bc1142;stroke-width:3.60506"
           id="path5-3" />
        <path
           d="M 151.03025,14.106021 A 22.788477,19.314277 55.965775 1 0 176.15716,52.129889 22.788477,19.314277 55.965775 1 0 151.03025,14.106021 Z"
           style="fill:#bc1142;stroke-width:3.60506"
           id="path6-6" />
        <path
           d="m 82.350786,24.722524 c 9.634594,-2.581518 3.25215,39.85591 -4.586124,36.373797 -8.621916,-6.935438 -11.399063,-27.245582 4.586124,-36.373797 z"
           style="fill:#bc1142;stroke-width:1.89663"
           id="path7-1" />
        <path
           d="m 193.67899,24.193358 c -9.63459,-2.581519 -3.25215,39.855909 4.58612,36.373797 8.62192,-6.935439 11.39907,-27.245583 -4.58612,-36.373797 z"
           style="fill:#bc1142;stroke-width:1.89663"
           id="path8-2" />
        <path
           d="m 160.94826,-7.4069937 c 16.62506,-2.8072633 30.45776,7.07027252 29.90093,25.0978347 -0.54688,6.911213 -36.02533,-24.0688992 -29.90093,-25.0978347 z"
           style="fill:#bc1142;stroke-width:1.89663"
           id="path9-9" />
        <path
           d="M 115.01346,-7.9361603 C 98.388408,-10.743424 84.555706,-0.86588784 85.112537,17.161675 85.659413,24.072888 121.13786,-6.9072248 115.01346,-7.9361603 Z"
           style="fill:#bc1142;stroke-width:1.89663"
           id="path10-3" />
        <path
           d="m 138.89464,-12.142432 c -9.92256,-0.258096 -19.44568,7.36446 -19.46846,11.78571361 -0.0277,5.37216869 7.84522,10.87243239 19.53611,11.01205039 11.93881,0.08552 19.55684,-4.4027958 19.59533,-9.94676911 0.0436,-6.28119769 -10.85818,-12.94803089 -19.66298,-12.85099489 z"
           style="fill:#bc1142;stroke-width:1.89663"
           id="path11-1" />
        <path
           d="m 139.50055,98.019766 c 8.6512,-0.377589 20.25937,2.786584 20.28211,6.983934 0.14359,4.07596 -10.52769,13.28488 -20.85613,13.10684 -10.69639,0.46141 -21.18495,-8.76183 -21.04748,-11.95879 -0.16009,-4.68734 13.02438,-8.347069 21.6215,-8.131984 z"
           style="fill:#bc1142;stroke-width:1.89663"
           id="path12-9" />
        <path
           d="m 107.54666,73.145478 c 6.15926,7.420433 8.9669,20.457316 3.82681,24.300267 C 106.51065,100.3794 94.701471,99.171257 86.307841,87.11335 80.647067,76.995239 81.376647,66.698992 85.351137,63.674114 c 5.943713,-3.620635 15.127133,1.269741 22.195523,9.471364 z"
           style="fill:#bc1142;stroke-width:1.89663"
           id="path13" />
        <path
           d="m 170.22173,70.792824 c -6.66402,7.805645 -10.37492,22.042308 -5.51335,26.628407 4.64827,3.562249 17.12627,3.064299 26.34341,-9.724956 6.6929,-8.589621 4.45033,-22.934678 0.62727,-26.742789 -5.67904,-4.392647 -13.8316,1.22896 -21.45733,9.839338 z"
           style="fill:#bc1142;stroke-width:1.89663"
           id="path14" />
      </g>
      <g
         id="g7"
         transform="matrix(0.67210034,0,0,0.67210034,53.599162,58.15462)"
         style="stroke-width:1.48787">
        <g
           enable-background="new"
           id="g6"
           transform="matrix(0.26991327,0,0,0.26991327,43.391662,-55.562494)"
           style="stroke-width:5.5124">
          <circle
             cx="67.733345"
             cy="67.733337"
             fill="#48b9c7"
             r="67.73333"
             stroke-width="2.987"
             id="circle1" />
          <g
             fill="#ffffff"
             stroke-width="20.8589"
             id="g5">
            <g
               transform="matrix(0.14319943,0,0,0.14319943,-5.159963e-5,-0.14320363)"
               id="g4"
               style="stroke-width:20.8589">
              <path
                 d="m 536,357 c -24,51 -64,92 -120,112 l 48,125 c 9,23 17,47 10,69 -7,22 -39,29 -62,5 -44,-47 -192,-343 -203,-365 -11,-22 -23,-40 -23,-62 1,-33 52,-67 77,-84 25,-17 74,-40 117,-41 43,-1 61,9 86,25 38,25 65,64 75,109 10,45 7,80 -5,105 M 423,301 c -9,-31 -28,-61 -53,-81 -5,-4 -11,-9 -18,-11 -46,-15 -26,62 -19,82 7,20 26,62 47,83 5,5 10,9 16,10 6,1 18,-5 23,-13 5,-8 6,-14 6,-22 a 128,128 0 0 0 -2,-48 z"
                 stroke-width="78.9306"
                 id="path1-9" />
              <g
                 stroke-width="20.8589"
                 id="g3">
                <path
                   d="m 625,664 c -2,9 -7,17 -15,22 -8,5 -27,5 -38,-4 -11,-9 -13,-24 -10,-36 3,-12 13,-25 27,-29 29,-9 42,23 36,47 z"
                   id="path2-2"
                   style="stroke-width:20.8589" />
                <path
                   d="m 607,573 c -18,-7 -12,-103 5,-220 5,-32 13,-48 22,-56 9,-8 36,-12 52,-9 a 90,90 0 0 1 49,24 c 12,11 13,23 9,38 -4,15 -18,47 -29,70 l -28,53 c -54,96 -65,106 -80,100 z"
                   id="path3-0"
                   style="stroke-width:20.8589" />
              </g>
            </g>
            <rect
               height="9.0311098"
               ry="4.4802761"
               width="63.217773"
               x="36.124439"
               y="108.37333"
               id="rect4"
               style="stroke-width:20.8589" />
          </g>
        </g>
      </g>
      <g
         id="g19"
         transform="matrix(0.12695585,0,0,0.12695585,16.893444,43.22638)"
         style="stroke-width:2.08406">
        <rect
           class="cls-1"
           x="30.25"
           y="169.38"
           width="193.57001"
           height="193.57001"
           id="rect16"
           style="fill:none;stroke-width:2.08406" />
        <circle
           class="cls-3"
           cx="58.09"
           cy="255.92"
           r="26.299999"
           id="circle16"
           style="fill:#e95420;fill-opacity:1;stroke-width:2.08406" />
        <circle
           class="cls-3"
           cx="167.63"
           cy="198.25"
           r="26.299999"
           id="circle17"
           style="fill:#e95420;fill-opacity:1;stroke-width:2.08406" />
        <path
           class="cls-3"
           d="M 117.41,323.62 C 98.46,319.56 82.63,307.46 73.73,290.3 c -7.01,3.19 -14.9,4.16 -22.49,2.76 10.77,26.45 33.61,45.66 61.65,51.67 6.15,1.32 12.42,1.96 18.68,1.92 -4.83,-6.35 -7.52,-14.01 -7.7,-21.99 -2.17,-0.24 -4.33,-0.59 -6.45,-1.05 z"
           id="path17"
           style="fill:#e95420;fill-opacity:1;stroke-width:2.08406" />
        <circle
           class="cls-3"
           cx="161.71001"
           cy="323.76001"
           r="26.299999"
           id="circle18"
           style="fill:#e95420;fill-opacity:1;stroke-width:2.08406" />
        <path
           class="cls-3"
           d="m 198.31,314.1 c 8.18,-10.31 13.94,-22.5 16.71,-35.45 4.84,-22.59 0.32,-46.29 -12.4,-65.51 -3.03,7.14 -8.17,13.17 -14.79,17.32 7.1,13.38 9.26,28.82 6.08,43.67 -1.56,7.27 -4.31,14.12 -8.18,20.38 6.19,5.08 10.56,11.91 12.59,19.6 z"
           id="path18"
           style="fill:#e95420;fill-opacity:1;stroke-width:2.08406" />
        <path
           class="cls-3"
           d="m 56.06,218.2 c 0.67,-0.04 1.34,-0.05 2,-0.05 2.66,0 5.31,0.28 7.94,0.85 4.29,0.92 8.32,2.54 12.01,4.84 11.84,-17.03 30.95,-27.25 51.65,-27.63 0.11,-1.99 0.38,-3.97 0.79,-5.92 1.21,-5.63 3.67,-10.9 7.19,-15.41 -33.08,-2.62 -65.22,14.45 -81.59,43.33 z"
           id="path19"
           style="fill:#e95420;fill-opacity:1;stroke-width:2.08406" />
      </g>
      <g
         id="g2"
         transform="matrix(0.60197036,0,0,0.60197036,45.434959,41.975517)"
         style="stroke-width:1.66122">
        <path
           d="m 40.493446,10.169655 c -1.957089,4.79826 -3.13751,7.936886 -5.316472,12.592513 1.335977,1.416134 2.975825,3.065294 5.638933,4.927864 -2.863102,-1.178149 -4.816088,-2.360982 -6.275586,-3.588411 -2.788656,5.818958 -7.157677,14.107805 -16.023828,30.038476 6.968497,-4.023034 12.370352,-6.503278 17.404622,-7.449674 -0.216174,-0.929759 -0.339077,-1.935475 -0.330729,-2.984831 l 0.0083,-0.223242 c 0.110574,-4.464532 2.43302,-7.897757 5.18418,-7.664649 2.751161,0.233109 4.889608,4.043474 4.779036,8.508008 -0.0208,0.840084 -0.115554,1.648235 -0.28112,2.397787 4.979612,0.9741 10.323706,3.447994 17.197917,7.416601 -1.355461,-2.495497 -2.565326,-4.745006 -3.720703,-6.887435 -1.819908,-1.410549 -3.718161,-3.246384 -7.590235,-5.233789 2.661441,0.691555 4.567,1.489424 6.052344,2.38125 C 45.473028,22.529179 44.521769,19.622981 40.493446,10.169655 Z"
           id="path2518"
           style="fill:#1793d1;fill-opacity:1;fill-rule:evenodd;stroke:none;stroke-width:0.439528" />
        <path
           d="m 62.69563,50.215513 v -1.20554 H 62.245303 V 48.848678 H 63.3287 v 0.161295 h -0.452192 v 1.20554 H 62.69563"
           id="path3940"
           style="font-style:normal;font-weight:normal;font-size:8.2513px;font-family:'DejaVu Sans Mono';fill:#1793d1;fill-opacity:1;stroke:none;stroke-width:0.384428" />
        <path
           d="m 63.517037,50.215513 v -1.366835 h 0.272249 l 0.323528,0.967785 c 0.02983,0.09013 0.05159,0.157569 0.06526,0.202322 0.01553,-0.04973 0.03978,-0.12276 0.07272,-0.219105 l 0.327259,-0.951002 h 0.243343 v 1.366835 h -0.17435 v -1.144002 l -0.397185,1.144002 h -0.16316 l -0.39532,-1.163582 v 1.163582 h -0.174352"
           id="path3942"
           style="font-style:normal;font-weight:normal;font-size:8.2513px;font-family:'DejaVu Sans Mono';fill:#1793d1;fill-opacity:1;stroke:none;stroke-width:0.384428" />
      </g>
      <g
         id="g9"
         transform="matrix(0.96061306,0,0,0.96061306,-33.199343,-24.634078)"
         style="stroke-width:1.041">
        <path
           d="m 95.224071,60.100282 c 0,-7.064632 -5.726996,-12.791818 -12.791585,-12.791818 -7.061391,0 -12.786167,5.722378 -12.79117,12.782798 v 9.898773 c 0.004,1.603111 1.303977,2.900888 2.908109,2.900888 h 9.888251 c 7.062221,-0.0029 12.786395,-5.727887 12.786395,-12.790641"
           id="voice"
           style="fill:#294172;stroke-width:0.275432" />
        <path
           style="color:#000000;fill:#3c6eb4;stroke-width:1.041;-inkscape-stroke:none"
           d="m 77.016091,59.522309 c -3.296922,0 -6.000585,2.703666 -6.000585,6.000581 0,3.296913 2.703663,6.000582 6.000585,6.000582 3.296909,0 6.000572,-2.703673 6.000572,-6.000582 v -6.000581 z m 0,2.806655 h 3.193923 v 3.193926 c 0,1.778341 -1.415576,3.193926 -3.193923,3.193926 -1.778346,0 -3.193937,-1.415585 -3.193937,-3.193926 0,-1.778348 1.415591,-3.193926 3.193937,-3.193926 z"
           id="in" />
        <path
           style="color:#000000;fill:#3c6eb4;stroke-width:1.041;-inkscape-stroke:none"
           d="m 86.1879,50.337022 c -3.296923,0 -5.999876,2.703671 -5.999876,6.000581 v 6.000581 H 86.1879 c 3.296908,0 6.000571,-2.703665 6.000571,-6.000581 0,-3.296912 -2.703663,-6.000581 -6.000571,-6.000581 z m 0,2.806655 c 1.778346,0 3.193923,1.415585 3.193923,3.193926 0,1.778347 -1.415577,3.193926 -3.193923,3.193926 h -3.193228 v -3.193926 c 0,-1.778343 1.414881,-3.193926 3.193228,-3.193926 z"
           id="finity" />
        <path
           d="m 83.019525,59.525992 v 5.990529 c 0,3.315317 -2.688012,6.003388 -6.003447,6.003388 -0.503009,0 -0.860588,-0.05678 -1.326196,-0.178498 -0.678935,-0.17767 -1.233777,-0.73433 -1.234005,-1.381807 0,-0.782623 0.568085,-1.351906 1.417276,-1.351906 0.40417,0 0.550816,0.0776 1.142925,0.0776 1.747941,0 3.165766,-1.415828 3.168829,-3.163768 v -2.753458 c 0,-0.246723 -0.200486,-0.446627 -0.447617,-0.446627 l -2.081711,-4e-4 c -0.775607,0 -1.402254,-0.618636 -1.402254,-1.39637 -4.01e-4,-0.782569 0.633081,-1.398667 1.417062,-1.398667"
           id="free"
           style="fill:#ffffff;stroke-width:0.275432" />
        <path
           d="M 80.184693,62.33453 V 56.344 c 0,-3.315316 2.688012,-6.003387 6.003447,-6.003387 0.503009,0 0.860588,0.05678 1.326209,0.178498 0.678922,0.17767 1.233764,0.73433 1.234005,1.381808 0,0.782622 -0.568098,1.351905 -1.417289,1.351905 -0.40417,0 -0.550816,-0.0776 -1.142925,-0.0776 -1.747941,0 -3.165766,1.415828 -3.168829,3.163769 v 2.753465 c 0,0.246722 0.200487,0.446626 0.447617,0.446626 l 2.081711,4e-4 c 0.775607,0 1.402267,0.618636 1.402267,1.39637 3.61e-4,0.782569 -0.633094,1.398668 -1.417075,1.398668"
           id="dom"
           style="fill:#ffffff;stroke-width:0.275432" />
        <path
           d="m 93.016889,70.677133 c 0,0 0,-0.531485 0,-0.531485 l -0.242957,0.557077 c 0,0 -0.236496,-0.557077 -0.236496,-0.557077 l 4e-5,0.531485 h -0.136279 v -0.839296 h 0.142887 c 0,0 0.233861,0.536203 0.233861,0.536203 l 0.230329,-0.536203 h 0.144653 v 0.839296 z m -0.992855,-0.698715 v 0.698715 h -0.142405 v -0.698715 h -0.238757 v -0.140581 h 0.619691 v 0.140581"
           id="TM"
           style="fill:#3c6eb4;stroke-width:0.275432" />
      </g>
      <g
         id="Layer_1"
         i:layer="yes"
         i:dimmedPercent="50"
         i:rgbTrio="#4F008000FFFF"
         transform="matrix(0.26298813,0,0,0.26298813,59.083588,87.307031)"
         style="stroke-width:1.00607">
		<g
   id="g12"
   style="stroke-width:1.00607">
			<path
   i:knockout="Off"
   fill="#a80030"
   d="m 51.986,57.297 c -1.797,0.025 0.34,0.926 2.686,1.287 0.648,-0.506 1.236,-1.018 1.76,-1.516 -1.461,0.358 -2.948,0.366 -4.446,0.229"
   id="path1"
   style="stroke-width:1.00607" />

			<path
   i:knockout="Off"
   fill="#a80030"
   d="m 61.631,54.893 c 1.07,-1.477 1.85,-3.094 2.125,-4.766 -0.24,1.192 -0.887,2.221 -1.496,3.307 -3.359,2.115 -0.316,-1.256 -0.002,-2.537 -3.612,4.546 -0.496,2.726 -0.627,3.996"
   id="path2"
   style="stroke-width:1.00607" />

			<path
   i:knockout="Off"
   fill="#a80030"
   d="m 65.191,45.629 c 0.217,-3.236 -0.637,-2.213 -0.924,-0.978 0.335,0.174 0.6,2.281 0.924,0.978"
   id="path3"
   style="stroke-width:1.00607" />

			<path
   i:knockout="Off"
   fill="#a80030"
   d="m 45.172,1.399 c 0.959,0.172 2.072,0.304 1.916,0.533 1.049,-0.23 1.287,-0.442 -1.916,-0.533"
   id="path4"
   style="stroke-width:1.00607" />

			<path
   i:knockout="Off"
   fill="#a80030"
   d="M 47.088,1.932 46.41,2.072 47.041,2.016 47.088,1.932"
   id="path5"
   style="stroke-width:1.00607" />

			<path
   i:knockout="Off"
   fill="#a80030"
   d="m 76.992,46.856 c 0.107,2.906 -0.85,4.316 -1.713,6.812 l -1.553,0.776 c -1.271,2.468 0.123,1.567 -0.787,3.53 -1.984,1.764 -6.021,5.52 -7.313,5.863 -0.943,-0.021 0.639,-1.113 0.846,-1.541 -2.656,1.824 -2.131,2.738 -6.193,3.846 L 60.16,65.878 C 50.142,70.591 36.226,61.251 36.409,48.507 c -0.107,0.809 -0.304,0.607 -0.526,0.934 -0.517,-6.557 3.028,-13.143 9.007,-15.832 5.848,-2.895 12.704,-1.707 16.893,2.197 -2.301,-3.014 -6.881,-6.209 -12.309,-5.91 -5.317,0.084 -10.291,3.463 -11.951,7.131 -2.724,1.715 -3.04,6.611 -4.227,7.507 -1.597,11.737 3.004,16.808 10.787,22.773 1.225,0.826 0.345,0.951 0.511,1.58 -2.586,-1.211 -4.954,-3.039 -6.901,-5.277 1.033,1.512 2.148,2.982 3.589,4.137 -2.438,-0.826 -5.695,-5.908 -6.646,-6.115 4.203,7.525 17.052,13.197 23.78,10.383 -3.113,0.115 -7.068,0.064 -10.566,-1.229 -1.469,-0.756 -3.467,-2.322 -3.11,-2.615 9.182,3.43 18.667,2.598 26.612,-3.771 2.021,-1.574 4.229,-4.252 4.867,-4.289 -0.961,1.445 0.164,0.695 -0.574,1.971 2.014,-3.248 -0.875,-1.322 2.082,-5.609 l 1.092,1.504 c -0.406,-2.696 3.348,-5.97 2.967,-10.234 0.861,-1.304 0.961,1.403 0.047,4.403 1.268,-3.328 0.334,-3.863 0.66,-6.609 0.352,0.923 0.814,1.904 1.051,2.878 -0.826,-3.216 0.848,-5.416 1.262,-7.285 -0.408,-0.181 -1.275,1.422 -1.473,-2.377 0.029,-1.65 0.459,-0.865 0.625,-1.271 -0.324,-0.186 -1.174,-1.451 -1.691,-3.877 0.375,-0.57 1.002,1.478 1.512,1.562 -0.328,-1.929 -0.893,-3.4 -0.916,-4.88 -1.49,-3.114 -0.527,0.415 -1.736,-1.337 -1.586,-4.947 1.316,-1.148 1.512,-3.396 2.404,3.483 3.775,8.881 4.404,11.117 -0.48,-2.726 -1.256,-5.367 -2.203,-7.922 0.73,0.307 -1.176,-5.609 0.949,-1.691 C 83.519,18.706 76.074,10.902 69.225,7.24 70.063,8.007 71.121,8.97 70.741,9.121 67.335,7.093 67.934,6.935 67.446,6.078 64.671,4.949 64.489,6.169 62.651,6.08 57.421,3.306 56.413,3.601 51.6,1.863 l 0.219,1.023 c -3.465,-1.154 -4.037,0.438 -7.782,0.004 -0.228,-0.178 1.2,-0.644 2.375,-0.815 -3.35,0.442 -3.193,-0.66 -6.471,0.122 0.808,-0.567 1.662,-0.942 2.524,-1.424 -2.732,0.166 -6.522,1.59 -5.352,0.295 -4.456,1.988 -12.37,4.779 -16.811,8.943 l -0.14,-0.933 c -2.035,2.443 -8.874,7.296 -9.419,10.46 l -0.544,0.127 c -1.059,1.793 -1.744,3.825 -2.584,5.67 -1.385,2.36 -2.03,0.908 -1.833,1.278 -2.724,5.523 -4.077,10.164 -5.246,13.97 0.833,1.245 0.02,7.495 0.335,12.497 -1.368,24.704 17.338,48.69 37.785,54.228 2.997,1.072 7.454,1.031 11.245,1.141 -4.473,-1.279 -5.051,-0.678 -9.408,-2.197 -3.143,-1.48 -3.832,-3.17 -6.058,-5.102 l 0.881,1.557 c -4.366,-1.545 -2.539,-1.912 -6.091,-3.037 l 0.941,-1.229 C 28.751,98.334 26.418,96.056 25.78,94.795 l -1.548,0.061 c -1.86,-2.295 -2.851,-3.949 -2.779,-5.23 l -0.5,0.891 c -0.567,-0.973 -6.843,-8.607 -3.587,-6.83 -0.605,-0.553 -1.409,-0.9 -2.281,-2.484 l 0.663,-0.758 c -1.567,-2.016 -2.884,-4.6 -2.784,-5.461 0.836,1.129 1.416,1.34 1.99,1.533 -3.957,-9.818 -4.179,-0.541 -7.176,-9.994 L 8.412,66.472 C 7.926,65.74 7.631,64.945 7.24,64.165 l 0.276,-2.75 C 4.667,58.121 6.719,47.409 7.13,41.534 7.415,39.145 9.508,36.602 11.1,32.614 l -0.97,-0.167 c 1.854,-3.234 10.586,-12.988 14.63,-12.486 1.959,-2.461 -0.389,-0.009 -0.772,-0.629 4.303,-4.453 5.656,-3.146 8.56,-3.947 3.132,-1.859 -2.688,0.725 -1.203,-0.709 5.414,-1.383 3.837,-3.144 10.9,-3.846 0.745,0.424 -1.729,0.655 -2.35,1.205 4.511,-2.207 14.275,-1.705 20.617,1.225 7.359,3.439 15.627,13.605 15.953,23.17 l 0.371,0.1 c -0.188,3.802 0.582,8.199 -0.752,12.238 l 0.908,-1.912"
   id="path6"
   style="stroke-width:1.00607" />

			<path
   i:knockout="Off"
   fill="#a80030"
   d="m 32.372,59.764 -0.252,1.26 c 1.181,1.604 2.118,3.342 3.626,4.596 -1.085,-2.118 -1.891,-2.993 -3.374,-5.856"
   id="path7"
   style="stroke-width:1.00607" />

			<path
   i:knockout="Off"
   fill="#a80030"
   d="m 35.164,59.654 c -0.625,-0.691 -0.995,-1.523 -1.409,-2.352 0.396,1.457 1.207,2.709 1.962,3.982 l -0.553,-1.63"
   id="path8"
   style="stroke-width:1.00607" />

			<path
   i:knockout="Off"
   fill="#a80030"
   d="m 84.568,48.916 -0.264,0.662 c -0.484,3.438 -1.529,6.84 -3.131,9.994 1.77,-3.328 2.915,-6.968 3.395,-10.656"
   id="path9"
   style="stroke-width:1.00607" />

			<path
   i:knockout="Off"
   fill="#a80030"
   d="M 45.527,0.537 C 46.742,0.092 48.514,0.293 49.803,0 48.123,0.141 46.451,0.225 44.8,0.438 l 0.727,0.099"
   id="path10"
   style="stroke-width:1.00607" />

			<path
   i:knockout="Off"
   fill="#a80030"
   d="m 2.872,23.219 c 0.28,2.592 -1.95,3.598 0.494,1.889 1.31,-2.951 -0.512,-0.815 -0.494,-1.889"
   id="path11"
   style="stroke-width:1.00607" />

			<path
   i:knockout="Off"
   fill="#a80030"
   d="M 0,35.215 C 0.563,33.487 0.665,32.449 0.88,31.449 -0.676,33.438 0.164,33.862 0,35.215"
   id="path12"
   style="stroke-width:1.00607" />

		</g>

	</g>
    </g>
    <path
       d="m 160.94992,48.395106 -3.12854,3.128569 12.38109,12.403321 h -27.0033 v 4.437675 h 27.0033 l -12.38109,12.403321 3.12854,3.128569 17.75075,-17.750727 z"
       id="path2-0"
       style="fill:#f9f9f9;fill-opacity:1;stroke-width:0.264583" />
  </g>
</svg>
